<svg xmlns="http://www.w3.org/2000/svg" version="1.1" xmlns:xlink="http://www.w3.org/1999/xlink" width="84" height="82"><svg xmlns="http://www.w3.org/2000/svg" version="1.1" xmlns:xlink="http://www.w3.org/1999/xlink" width="84" height="82"><svg width="84" height="82" viewBox="0 0 84 82" fill="none" xmlns="http://www.w3.org/2000/svg">
<path d="M52.1379 36.6897C52.1379 35.6232 53.0025 34.7586 54.069 34.7586H61.7931C62.8596 34.7586 63.7241 35.6232 63.7241 36.6897V44.4138C63.7241 45.4803 62.8596 46.3448 61.7931 46.3448H54.069C53.0025 46.3448 52.1379 45.4803 52.1379 44.4138V36.6897Z" fill="#E5E7EB"></path>
<path d="M52.1379 54.069C52.1379 53.0025 53.0025 52.1379 54.069 52.1379H61.7931C62.8596 52.1379 63.7241 53.0025 63.7241 54.069V61.7931C63.7241 62.8596 62.8596 63.7241 61.7931 63.7241H54.069C53.0025 63.7241 52.1379 62.8596 52.1379 61.7931V54.069Z" fill="#E5E7EB"></path>
<path d="M66.6207 40.5517C66.6207 35.7526 70.5112 31.8621 75.3103 31.8621C80.1095 31.8621 84 35.7526 84 40.5517C84 45.3509 80.1095 49.2414 75.3103 49.2414C70.5112 49.2414 66.6207 45.3509 66.6207 40.5517Z" fill="#FF8904"></path>
<path d="M69.5172 54.069C69.5172 53.0025 70.3818 52.1379 71.4483 52.1379H79.1724C80.2389 52.1379 81.1034 53.0025 81.1034 54.069V61.7931C81.1034 62.8596 80.2389 63.7241 79.1724 63.7241H71.4483C70.3818 63.7241 69.5172 62.8596 69.5172 61.7931V54.069Z" fill="#E5E7EB"></path>
<path d="M52.1379 54.069C52.1379 53.0025 53.0025 52.1379 54.069 52.1379H61.7931C62.8596 52.1379 63.7241 53.0025 63.7241 54.069V61.7931C63.7241 62.8596 62.8596 63.7241 61.7931 63.7241H54.069C53.0025 63.7241 52.1379 62.8596 52.1379 61.7931V54.069Z" fill="#E5E7EB"></path>
<path d="M69.5172 54.069C69.5172 53.0025 70.3818 52.1379 71.4483 52.1379H79.1724C80.2389 52.1379 81.1034 53.0025 81.1034 54.069V61.7931C81.1034 62.8596 80.2389 63.7241 79.1724 63.7241H71.4483C70.3818 63.7241 69.5172 62.8596 69.5172 61.7931V54.069Z" fill="#E5E7EB"></path>
<path d="M0 1.93103C0 0.864554 0.864554 0 1.93103 0H9.65517C10.7217 0 11.5862 0.864554 11.5862 1.93103V9.65517C11.5862 10.7217 10.7217 11.5862 9.65517 11.5862H1.93103C0.864554 11.5862 0 10.7217 0 9.65517V1.93103Z" fill="#E5E7EB"></path>
<path d="M17.3793 1.93103C17.3793 0.864554 18.2439 0 19.3103 0H27.0345C28.101 0 28.9655 0.864554 28.9655 1.93103V9.65517C28.9655 10.7217 28.101 11.5862 27.0345 11.5862H19.3103C18.2439 11.5862 17.3793 10.7217 17.3793 9.65517V1.93103Z" fill="#E5E7EB"></path>
<path d="M0 19.3103C0 18.2439 0.864554 17.3793 1.93103 17.3793H9.65517C10.7217 17.3793 11.5862 18.2439 11.5862 19.3103V27.0345C11.5862 28.101 10.7217 28.9655 9.65517 28.9655H1.93103C0.864554 28.9655 0 28.101 0 27.0345V19.3103Z" fill="#E5E7EB"></path>
<path d="M17.3793 19.3103C17.3793 18.2439 18.2439 17.3793 19.3103 17.3793H27.0345C28.101 17.3793 28.9655 18.2439 28.9655 19.3103V27.0345C28.9655 28.101 28.101 28.9655 27.0345 28.9655H19.3103C18.2439 28.9655 17.3793 28.101 17.3793 27.0345V19.3103Z" fill="#E5E7EB"></path>
<path d="M34.7586 1.93103C34.7586 0.864554 35.6232 0 36.6897 0H44.4138C45.4803 0 46.3448 0.864554 46.3448 1.93103V9.65517C46.3448 10.7217 45.4803 11.5862 44.4138 11.5862H36.6897C35.6232 11.5862 34.7586 10.7217 34.7586 9.65517V1.93103Z" fill="#E5E7EB"></path>
<path d="M0 36.6897C0 35.6232 0.864554 34.7586 1.93103 34.7586H9.65517C10.7217 34.7586 11.5862 35.6232 11.5862 36.6897V44.4138C11.5862 45.4803 10.7217 46.3448 9.65517 46.3448H1.93103C0.864554 46.3448 0 45.4803 0 44.4138V36.6897Z" fill="#E5E7EB"></path>
<path fill-rule="evenodd" clip-rule="evenodd" d="M17.3793 36.6897C17.3793 35.6232 18.2439 34.7586 19.3103 34.7586H27.0345C28.101 34.7586 28.9655 35.6232 28.9655 36.6897V40.7408C28.9655 42.1103 27.5681 43.0535 26.2252 42.7844C25.2384 42.5865 24.2175 42.4828 23.1724 42.4828C22.1273 42.4828 21.1065 42.5865 20.1196 42.7844C18.7768 43.0535 17.3793 42.1103 17.3793 40.7408V36.6897Z" fill="#E5E7EB"></path>
<path d="M34.7586 36.6897C34.7586 35.6232 35.6232 34.7586 36.6897 34.7586H44.4138C45.4803 34.7586 46.3448 35.6232 46.3448 36.6897V44.4138C46.3448 45.4803 45.4803 46.3448 44.4138 46.3448H36.6897C35.6232 46.3448 34.7586 45.4803 34.7586 44.4138V36.6897Z" fill="#E5E7EB"></path>
<path fill-rule="evenodd" clip-rule="evenodd" d="M0 54.069C0 53.0025 0.864554 52.1379 1.93103 52.1379H5.98216C7.3517 52.1379 8.29489 53.5354 8.02573 54.8782C7.82792 55.8651 7.72414 56.8859 7.72414 57.931C7.72414 58.9761 7.82792 59.997 8.02573 60.9839C8.29489 62.3267 7.3517 63.7241 5.98216 63.7241H1.93104C0.864554 63.7241 0 62.8596 0 61.7931V54.069Z" fill="#E5E7EB"></path>
<path fill-rule="evenodd" clip-rule="evenodd" d="M38.3191 54.8782C38.0499 53.5354 38.9931 52.1379 40.3627 52.1379H44.4139C45.4803 52.1379 46.3449 53.0025 46.3449 54.069V61.7931C46.3449 62.8596 45.4803 63.7241 44.4139 63.7241H40.3627C38.9931 63.7241 38.0499 62.3267 38.3191 60.9839C38.5169 59.997 38.6207 58.9761 38.6207 57.931C38.6207 56.8859 38.5169 55.8651 38.3191 54.8782Z" fill="#E5E7EB"></path>
<path d="M0 71.4483C0 70.3818 0.864554 69.5172 1.93103 69.5172H9.65517C10.7217 69.5172 11.5862 70.3818 11.5862 71.4483V79.1724C11.5862 80.2389 10.7217 81.1035 9.65517 81.1035H1.93103C0.864554 81.1035 0 80.2389 0 79.1724V71.4483Z" fill="#E5E7EB"></path>
<path fill-rule="evenodd" clip-rule="evenodd" d="M26.2252 73.0777C27.5681 72.8086 28.9655 73.7517 28.9655 75.1213V79.1725C28.9655 80.239 28.101 81.1035 27.0345 81.1035H19.3103C18.2439 81.1035 17.3793 80.239 17.3793 79.1725V75.1213C17.3793 73.7517 18.7768 72.8086 20.1196 73.0777C21.1065 73.2755 22.1273 73.3793 23.1724 73.3793C24.2175 73.3793 25.2384 73.2755 26.2252 73.0777Z" fill="#E5E7EB"></path>
<path d="M34.7586 71.4483C34.7586 70.3818 35.6232 69.5172 36.6897 69.5172H44.4138C45.4803 69.5172 46.3448 70.3818 46.3448 71.4483V79.1724C46.3448 80.2389 45.4803 81.1035 44.4138 81.1035H36.6897C35.6232 81.1035 34.7586 80.2389 34.7586 79.1724V71.4483Z" fill="#E5E7EB"></path>
<path d="M52.1379 1.93103C52.1379 0.864554 53.0025 0 54.069 0H61.7931C62.8596 0 63.7241 0.864554 63.7241 1.93103V9.65517C63.7241 10.7217 62.8596 11.5862 61.7931 11.5862H54.069C53.0025 11.5862 52.1379 10.7217 52.1379 9.65517V1.93103Z" fill="#E5E7EB"></path>
<path d="M32.8276 23.1724C32.8276 18.9065 36.2858 15.4483 40.5517 15.4483C44.8176 15.4483 48.2759 18.9065 48.2759 23.1724C48.2759 27.4383 44.8176 30.8966 40.5517 30.8966C36.2858 30.8966 32.8276 27.4383 32.8276 23.1724Z" fill="#FDC700"></path>
<path d="M52.1379 19.3103C52.1379 18.2439 53.0025 17.3793 54.069 17.3793H61.7931C62.8596 17.3793 63.7241 18.2439 63.7241 19.3103V27.0345C63.7241 28.101 62.8596 28.9655 61.7931 28.9655H54.069C53.0025 28.9655 52.1379 28.101 52.1379 27.0345V19.3103Z" fill="#E5E7EB"></path>
<path d="M69.5172 1.93103C69.5172 0.864554 70.3818 0 71.4483 0H79.1724C80.2389 0 81.1034 0.864554 81.1034 1.93103V9.65517C81.1034 10.7217 80.2389 11.5862 79.1724 11.5862H71.4483C70.3818 11.5862 69.5172 10.7217 69.5172 9.65517V1.93103Z" fill="#E5E7EB"></path>
<path d="M69.5172 19.3103C69.5172 18.2439 70.3818 17.3793 71.4483 17.3793H79.1724C80.2389 17.3793 81.1034 18.2439 81.1034 19.3103V27.0345C81.1034 28.101 80.2389 28.9655 79.1724 28.9655H71.4483C70.3818 28.9655 69.5172 28.101 69.5172 27.0345V19.3103Z" fill="#E5E7EB"></path>
<path d="M52.1379 71.4483C52.1379 70.3818 53.0025 69.5172 54.069 69.5172H61.7931C62.8596 69.5172 63.7241 70.3818 63.7241 71.4483V79.1724C63.7241 80.2389 62.8596 81.1035 61.7931 81.1035H54.069C53.0025 81.1035 52.1379 80.2389 52.1379 79.1724V71.4483Z" fill="#E5E7EB"></path>
<path d="M69.5172 71.4483C69.5172 70.3818 70.3818 69.5172 71.4483 69.5172H79.1724C80.2389 69.5172 81.1034 70.3818 81.1034 71.4483V79.1724C81.1034 80.2389 80.2389 81.1035 79.1724 81.1035H71.4483C70.3818 81.1035 69.5172 80.2389 69.5172 79.1724V71.4483Z" fill="#E5E7EB"></path>
<path d="M23.1729 46.4136C29.5335 46.4138 34.6895 51.5705 34.6895 57.9312C34.6893 64.2917 29.5334 69.4476 23.1729 69.4478C16.8122 69.4478 11.6555 64.2918 11.6553 57.9312C11.6553 51.5704 16.8121 46.4136 23.1729 46.4136Z" fill="#05DF72" stroke="#00C950" stroke-width="4"></path>
<path d="M17.3789 57.9308C17.3789 54.7314 19.9726 52.1377 23.172 52.1377C26.3715 52.1377 28.9651 54.7314 28.9651 57.9308C28.9651 61.1302 26.3715 63.7239 23.172 63.7239C19.9726 63.7239 17.3789 61.1302 17.3789 57.9308Z" fill="#00A63E"></path>
</svg></svg><style>@media (prefers-color-scheme: light) { :root { filter: none; } }
@media (prefers-color-scheme: dark) { :root { filter: none; } }
</style></svg>