<svg width="998" height="203" viewBox="0 0 998 203" fill="none" xmlns="http://www.w3.org/2000/svg">
<rect y="14" width="48" height="48" rx="4" fill="#DEDFDE"/>
<rect x="64" y="14" width="48" height="48" rx="4" fill="#DEDFDE"/>
<rect x="128" y="14" width="48" height="48" rx="4" fill="#DEDFDE"/>
<rect y="78" width="48" height="48" rx="4" fill="#DEDFDE"/>
<rect x="64" y="78" width="48" height="48" rx="4" fill="#DEDFDE"/>
<rect x="128" y="78" width="48" height="48" rx="4" fill="#DEDFDE"/>
<rect y="142" width="48" height="48" rx="4" fill="#DEDFDE"/>
<rect x="64" y="142" width="48" height="48" rx="4" fill="#DEDFDE"/>
<rect x="128" y="142" width="48" height="48" rx="4" fill="#DEDFDE"/>
<circle cx="56" cy="134" r="36" fill="#05DF72" stroke="#00A63E" stroke-width="8"/>
<circle cx="56" cy="134" r="14" fill="#00A63E"/>
<circle cx="98" cy="70" r="14" fill="#FFE999" stroke="#FDC700" stroke-width="8"/>
<circle cx="128" cy="126" r="20" fill="#FFC48F" stroke="#FF8D28" stroke-width="8"/>
<path d="M218.682 59.3722V40.8182H316.165V59.3722H278.401V163H256.446V59.3722H218.682ZM316.087 163V71.3636H337.028V86.6364H337.982C339.653 81.3466 342.516 77.2699 346.573 74.4062C350.67 71.5028 355.343 70.0511 360.593 70.0511C361.786 70.0511 363.118 70.1108 364.59 70.2301C366.101 70.3097 367.354 70.4489 368.349 70.6477V90.5142C367.434 90.196 365.982 89.9176 363.993 89.679C362.045 89.4006 360.155 89.2614 358.326 89.2614C354.388 89.2614 350.849 90.1165 347.707 91.8267C344.604 93.4972 342.158 95.8239 340.368 98.8068C338.579 101.79 337.684 105.23 337.684 109.128V163H316.087ZM411.091 164.79C401.904 164.79 393.969 162.881 387.287 159.062C380.645 155.205 375.535 149.756 371.955 142.716C368.375 135.636 366.586 127.304 366.586 117.719C366.586 108.293 368.375 100.02 371.955 92.9006C375.574 85.7415 380.625 80.1733 387.108 76.196C393.591 72.179 401.208 70.1705 409.958 70.1705C415.606 70.1705 420.935 71.0852 425.946 72.9148C430.998 74.7045 435.452 77.4886 439.31 81.267C443.208 85.0455 446.27 89.858 448.498 95.7045C450.725 101.511 451.838 108.432 451.838 116.466V123.088H376.728V108.531H431.137C431.097 104.395 430.202 100.716 428.452 97.4943C426.702 94.233 424.256 91.6676 421.114 89.7983C418.012 87.929 414.392 86.9943 410.256 86.9943C405.841 86.9943 401.963 88.0682 398.623 90.2159C395.282 92.3239 392.677 95.108 390.807 98.5682C388.978 101.989 388.043 105.747 388.003 109.844V122.551C388.003 127.881 388.978 132.455 390.927 136.273C392.875 140.051 395.6 142.955 399.1 144.983C402.6 146.972 406.696 147.966 411.39 147.966C414.532 147.966 417.375 147.528 419.921 146.653C422.466 145.739 424.674 144.406 426.543 142.656C428.412 140.906 429.824 138.739 430.779 136.153L450.944 138.42C449.671 143.75 447.245 148.403 443.665 152.381C440.125 156.318 435.591 159.381 430.063 161.568C424.535 163.716 418.211 164.79 411.091 164.79ZM502.277 164.79C493.09 164.79 485.155 162.881 478.473 159.062C471.831 155.205 466.72 149.756 463.141 142.716C459.561 135.636 457.772 127.304 457.772 117.719C457.772 108.293 459.561 100.02 463.141 92.9006C466.76 85.7415 471.811 80.1733 478.294 76.196C484.777 72.179 492.394 70.1705 501.144 70.1705C506.791 70.1705 512.121 71.0852 517.132 72.9148C522.184 74.7045 526.638 77.4886 530.496 81.267C534.394 85.0455 537.456 89.858 539.684 95.7045C541.911 101.511 543.024 108.432 543.024 116.466V123.088H467.914V108.531H522.323C522.283 104.395 521.388 100.716 519.638 97.4943C517.888 94.233 515.442 91.6676 512.3 89.7983C509.198 87.929 505.578 86.9943 501.442 86.9943C497.027 86.9943 493.149 88.0682 489.809 90.2159C486.468 92.3239 483.863 95.108 481.993 98.5682C480.164 101.989 479.229 105.747 479.189 109.844V122.551C479.189 127.881 480.164 132.455 482.113 136.273C484.061 140.051 486.786 142.955 490.286 144.983C493.786 146.972 497.882 147.966 502.576 147.966C505.718 147.966 508.561 147.528 511.107 146.653C513.652 145.739 515.86 144.406 517.729 142.656C519.598 140.906 521.01 138.739 521.965 136.153L542.13 138.42C540.857 143.75 538.431 148.403 534.851 152.381C531.311 156.318 526.777 159.381 521.249 161.568C515.72 163.716 509.397 164.79 502.277 164.79ZM569.54 163H545.915L588.929 40.8182H616.253L659.327 163H635.702L603.068 65.875H602.114L569.54 163ZM570.315 115.094H634.747V132.872H570.315V115.094ZM703.129 199.273C695.373 199.273 688.711 198.219 683.143 196.111C677.575 194.043 673.1 191.259 669.719 187.759C666.339 184.259 663.992 180.381 662.68 176.125L682.129 171.412C683.004 173.202 684.276 174.972 685.947 176.722C687.617 178.511 689.864 179.983 692.688 181.136C695.552 182.33 699.151 182.926 703.487 182.926C709.612 182.926 714.683 181.435 718.7 178.452C722.717 175.509 724.725 170.656 724.725 163.895V146.534H723.651C722.538 148.761 720.907 151.048 718.759 153.395C716.651 155.741 713.847 157.71 710.347 159.301C706.887 160.892 702.532 161.688 697.282 161.688C690.242 161.688 683.859 160.037 678.131 156.736C672.444 153.395 667.91 148.423 664.529 141.821C661.188 135.179 659.518 126.866 659.518 116.884C659.518 106.821 661.188 98.3295 664.529 91.4091C667.91 84.4489 672.464 79.179 678.191 75.5994C683.918 71.9801 690.302 70.1705 697.342 70.1705C702.711 70.1705 707.126 71.0852 710.586 72.9148C714.086 74.7045 716.87 76.8722 718.938 79.4176C721.006 81.9233 722.577 84.2898 723.651 86.517H724.844V71.3636H746.143V164.491C746.143 172.327 744.273 178.81 740.535 183.94C736.796 189.071 731.685 192.909 725.202 195.455C718.719 198 711.362 199.273 703.129 199.273ZM703.308 144.744C707.881 144.744 711.779 143.631 715.001 141.403C718.222 139.176 720.668 135.974 722.339 131.798C724.009 127.622 724.844 122.611 724.844 116.764C724.844 110.997 724.009 105.946 722.339 101.611C720.708 97.2756 718.282 93.9148 715.06 91.5284C711.879 89.1023 707.961 87.8892 703.308 87.8892C698.495 87.8892 694.478 89.142 691.256 91.6477C688.035 94.1534 685.609 97.5938 683.978 101.969C682.347 106.304 681.532 111.236 681.532 116.764C681.532 122.372 682.347 127.284 683.978 131.5C685.648 135.676 688.094 138.937 691.316 141.284C694.577 143.591 698.575 144.744 703.308 144.744ZM800.444 164.79C791.257 164.79 783.322 162.881 776.64 159.062C769.998 155.205 764.888 149.756 761.308 142.716C757.729 135.636 755.939 127.304 755.939 117.719C755.939 108.293 757.729 100.02 761.308 92.9006C764.927 85.7415 769.979 80.1733 776.461 76.196C782.944 72.179 790.561 70.1705 799.311 70.1705C804.959 70.1705 810.288 71.0852 815.3 72.9148C820.351 74.7045 824.805 77.4886 828.663 81.267C832.561 85.0455 835.623 89.858 837.851 95.7045C840.078 101.511 841.192 108.432 841.192 116.466V123.088H766.081V108.531H820.49C820.45 104.395 819.555 100.716 817.805 97.4943C816.055 94.233 813.609 91.6676 810.467 89.7983C807.365 87.929 803.746 86.9943 799.609 86.9943C795.194 86.9943 791.317 88.0682 787.976 90.2159C784.635 92.3239 782.03 95.108 780.16 98.5682C778.331 101.989 777.396 105.747 777.356 109.844V122.551C777.356 127.881 778.331 132.455 780.28 136.273C782.229 140.051 784.953 142.955 788.453 144.983C791.953 146.972 796.05 147.966 800.743 147.966C803.885 147.966 806.729 147.528 809.274 146.653C811.819 145.739 814.027 144.406 815.896 142.656C817.765 140.906 819.177 138.739 820.132 136.153L840.297 138.42C839.024 143.75 836.598 148.403 833.018 152.381C829.479 156.318 824.944 159.381 819.416 161.568C813.888 163.716 807.564 164.79 800.444 164.79ZM872.659 109.307V163H851.062V71.3636H871.704V86.9347H872.778C874.886 81.804 878.247 77.7273 882.861 74.7045C887.514 71.6818 893.261 70.1705 900.102 70.1705C906.426 70.1705 911.934 71.5227 916.628 74.2273C921.361 76.9318 925.02 80.8494 927.605 85.9801C930.23 91.1108 931.522 97.3352 931.483 104.653V163H909.886V107.994C909.886 101.869 908.295 97.0767 905.113 93.6165C901.971 90.1562 897.616 88.4261 892.048 88.4261C888.27 88.4261 884.909 89.2614 881.966 90.9318C879.062 92.5625 876.775 94.929 875.105 98.0312C873.474 101.134 872.659 104.892 872.659 109.307ZM990.796 71.3636V88.0682H938.117V71.3636H990.796ZM951.122 49.4091H972.719V135.438C972.719 138.341 973.157 140.568 974.032 142.119C974.946 143.631 976.139 144.665 977.611 145.222C979.083 145.778 980.713 146.057 982.503 146.057C983.855 146.057 985.088 145.957 986.202 145.759C987.355 145.56 988.23 145.381 988.827 145.222L992.466 162.105C991.313 162.503 989.662 162.94 987.514 163.418C985.407 163.895 982.821 164.173 979.759 164.253C974.35 164.412 969.478 163.597 965.142 161.807C960.807 159.977 957.367 157.153 954.821 153.335C952.316 149.517 951.083 144.744 951.122 139.017V49.4091Z" fill="#1C1917"/>
</svg>
